<?xml version="1.0" encoding="UTF-8" standalone="no"?>
<svg
   height="330"
   width="700"
   version="1.1"
   id="svg10"
   sodipodi:docname="step-2-esd.svg"
   inkscape:version="1.2.1 (9c6d41e410, 2022-07-14)"
   xmlns:inkscape="http://www.inkscape.org/namespaces/inkscape"
   xmlns:sodipodi="http://sodipodi.sourceforge.net/DTD/sodipodi-0.dtd"
   xmlns="http://www.w3.org/2000/svg"
   xmlns:svg="http://www.w3.org/2000/svg">
  <defs
     id="defs14" />
  <sodipodi:namedview
     id="namedview12"
     pagecolor="#ffffff"
     bordercolor="#666666"
     borderopacity="1.0"
     inkscape:showpageshadow="2"
     inkscape:pageopacity="0.0"
     inkscape:pagecheckerboard="0"
     inkscape:deskcolor="#d1d1d1"
     showgrid="false"
     inkscape:zoom="2.1739057"
     inkscape:cx="250.01084"
     inkscape:cy="216.89073"
     inkscape:window-width="2560"
     inkscape:window-height="1376"
     inkscape:window-x="1280"
     inkscape:window-y="27"
     inkscape:window-maximized="0"
     inkscape:current-layer="g8" />
  <g
     transform="matrix(1.25,0,0,-1.25,-187.5,624.98)"
     id="g8">
    <path
       d="m 335.64,253.47 c -22.39,23.43 -36.14,55.18 -36.14,90.14 0,72.08 58.43,130.5 130.5,130.5 72.07,0 130.5,-58.42 130.5,-130.5 0,-34.96 -13.75,-66.71 -36.14,-90.14 h 11.29 c 20.72,24.26 33.24,55.74 33.24,90.14 0,76.71 -62.19,138.89 -138.89,138.89 -76.7,0 -138.89,-62.18 -138.89,-138.89 0,-34.4 12.52,-65.88 33.24,-90.14 z"
       id="path4" />
    <path
       d="M 430,451.45 329.51,277.37 h 200.98 l -47.12,81.61 c -20.47,-20.75 -23.12,-26.8 -39.48,-38.19 -11.73,-8.16 -18.77,-19.99 -20.42,-20.05 -1.66,-0.06 -0.24,4.14 -6.6,4.59 -6.36,0.44 -9.65,-10.51 -10.76,-10.35 -1.12,0.16 -0.26,3.12 0.25,12.08 0.51,8.97 16.79,19.25 16.86,23.89 0.04,3.06 -6.16,4.58 -9.28,7.06 -3.11,2.48 -7.19,5.3 -9.79,5.3 -2.61,0 -8.77,-9.62 -9.98,-12.04 -0.77,-1.52 0.74,-8.94 -0.21,-18.61 -0.34,-3.49 3.72,-2.15 5.16,-10.19 1,-5.54 -1.83,-11.44 -3.99,-13.54 -2.17,-2.1 -2.97,5.82 -4.71,10.62 -2.16,5.98 -5.49,1.79 -7.33,3.38 -3.47,3 -3.91,10.82 -6.85,21.86 -2.04,7.63 -0.52,8.65 1,10.94 6.79,10.17 10.93,18.83 20.85,32.82 9.83,13.85 41.83,4.86 67.01,22.04 z M 405.43,339.52 c 0.28,0 0.53,-0.11 0.75,-0.41 1.14,-1.59 -0.56,-1.66 -3.11,-6.81 -2.54,-5.15 -2.17,-5.65 1.08,-12.33 3.24,-6.68 -2.34,-11.47 -4.39,-11.58 -1.32,-0.07 -2.8,4.01 -2.74,6.55 0.06,2.55 1.72,4.57 0.57,10.49 -1.14,5.91 0.28,5.74 2.74,8.9 2.02,2.59 3.86,5.16 5.1,5.19 z m 4.31,-3.24 c 0.4,0.02 0.77,-0.16 1.08,-0.55 1.33,-1.47 0.13,-2.47 -1.15,-3.61 -1.27,-1.15 -2.1,-0.71 -0.64,-5.73 1.47,-5.03 0.27,-8.46 -1,-8.52 -1.27,-0.07 -3.5,3.69 -3.56,8.58 -0.06,4.14 3.1,9.71 5.27,9.83 z m 4.27,-2.01 c 0.08,0.01 0.18,0 0.25,0 1.21,-0.07 1.58,-0.82 1.65,-1.97 0.06,-1.14 -1.6,-0.76 -1.6,-2.99 0,-2.23 1.1,-1.59 1.16,-3.49 0.07,-1.91 -1.6,-2.81 -2.3,-2.75 -0.7,0.07 -1.97,1.6 -2.03,5.35 0,3.99 1.67,5.7 2.87,5.85 z m 2.08,-30.84 c 0.98,0.09 1.98,-0.36 3.2,-1.25 1.42,-1.04 3.36,-4.72 -1.17,-9.73 -4.67,-5.17 -6.79,-5.32 -8.08,-4.27 -1.3,1.04 -3.65,5.2 0.43,10.05 2.44,3.46 4,5.06 5.62,5.2 z m -30.83,-2.3 c 1.4,0.01 3.31,-0.65 4.18,-3.22 1.9,-5.61 2.58,-8.84 1.25,-9.05 -1.32,-0.21 -1.69,-0.29 -5.13,4.98 -2.64,4.62 -2.36,6.3 -1.94,6.83 0.15,0.2 0.8,0.45 1.64,0.46 z"
       id="path6" />
  </g>
</svg>
